# xmcd
#
# Track frame offsets:
#	150
#	15142
#	34592
#
# Disc length: 750 seconds
#
# Revision: 4
# Processed by: cddbd v1.5.2PL0 Copyright (c) Steve Scherf et al.
# Submitted via: EasyCDDAExtractor 12.0.4.1
#
DISCID=1002ec03
DTITLE=King Biscuit - King Biscuit demo
DYEAR=1900
DGENRE=Blues
TTITLE0=Baby, What You Want Me To Do?
TTITLE1=I Can't Stop Lovin'
TTITLE2=I Wish You Would
EXTD=ID3G: 0
EXTT0=
EXTT1=
EXTT2=
PLAYORDER=
